<?xml version="1.0" encoding="UTF-8"?>
<svg width="24px" height="24px" viewBox="0 0 24 24" version="1.1" xmlns="http://www.w3.org/2000/svg" xmlns:xlink="http://www.w3.org/1999/xlink">
    <!-- Generator: Sketch 61 (89581) - https://sketch.com -->
    <title>icn_behance_hover</title>
    <desc>Created with Sketch.</desc>
    <g id="icn_behance_hover" stroke="none" stroke-width="1" fill="none" fill-rule="evenodd">
        <rect id="Rectangle-Copy-2" x="0" y="0" width="24" height="24"></rect>
        <g id="Group-2" transform="translate(1.000000, 7.000000)" fill="#0557FF" fill-rule="nonzero">
            <path d="M9.47688134,6.78006008 C9.95490088,6.52955786 10.3162952,6.25055538 10.5639438,5.94905271 C11.0045281,5.4060479 11.2219406,4.68604152 11.2219406,3.79353361 C11.2219406,2.92502592 11.0045281,2.18251934 10.5697031,1.56001382 C9.8440349,0.546004838 8.61587025,0.0270002392 6.87944987,0 L0,0 L0,14.6296296 L6.41438869,14.6296296 C7.13717727,14.6296296 7.80669259,14.5651291 8.42581428,14.4331279 C9.04493598,14.2996267 9.58054823,14.0551245 10.0340909,13.6981214 C10.4372399,13.3876186 10.7741573,13.0021152 11.0419634,12.5476112 C11.4652698,11.8606051 11.6769231,11.0820982 11.6769231,10.2150905 C11.6769231,9.37508307 11.4911866,8.65957673 11.1225932,8.07157152 C10.7496804,7.48356631 10.2025496,7.0530625 9.47688134,6.78006008 Z M2.83788106,2.54102252 L5.93636915,2.54102252 C6.61740302,2.54102252 7.17893199,2.61752319 7.61951627,2.76902454 C8.1292118,2.98952649 8.38405957,3.43803046 8.38405957,4.12203652 C8.38405957,4.73554196 8.18968415,5.16454576 7.80525277,5.4060479 C7.41794176,5.64755004 6.91544532,5.76905112 6.29920326,5.76905112 L2.83788106,5.76905112 L2.83788106,2.54102252 Z M7.73758133,11.8336049 C7.39490468,12.0061064 6.91256568,12.0916071 6.29488381,12.0916071 L2.83788106,12.0916071 L2.83788106,8.19007257 L6.3423978,8.19007257 C6.95288058,8.19457261 7.42802049,8.27857335 7.76781751,8.43607475 C8.37254102,8.72107728 8.67346296,9.2430819 8.67346296,10.0065887 C8.67346296,10.9065966 8.3624623,11.512602 7.73758133,11.8336049 Z" id="Shape"></path>
            <rect id="Rectangle" x="14.6846154" y="0.740740741" width="6.01538462" height="1.85185185"></rect>
            <path d="M22.9054372,7.86498435 C22.7787831,7.01700711 22.4995683,6.2710873 22.0649144,5.62722492 C21.5885223,4.89781441 20.9840368,4.3635137 20.2485794,4.02582364 C19.5160005,3.68663274 18.6913095,3.51703729 17.7730672,3.51852826 C16.2316291,3.51852826 14.9794806,4.02132111 14.0108645,5.01938283 C13.0451269,6.02044623 12.5615385,7.45975629 12.5615385,9.33581215 C12.5615385,11.3364381 13.0955007,12.7817516 14.1691821,13.6687508 C15.2385458,14.5572508 16.4734233,15 17.8752541,15 C19.5721313,15 20.8919247,14.4732035 21.8346342,13.4226122 C22.4376805,12.7592389 22.7787831,12.1063714 22.8536241,11.4655108 L20.0442057,11.4655108 C19.8815703,11.782189 19.6930284,12.0298284 19.4771407,12.2099297 C19.0856644,12.5401156 18.5761694,12.7052085 17.9515344,12.7052085 C17.3571236,12.7052085 16.8533857,12.5686316 16.4331243,12.2969787 C15.7394052,11.8617338 15.3767139,11.0993047 15.3306579,10.0141939 L22.9975492,10.0141939 C23.0090633,9.07916771 22.9802782,8.3602631 22.9054372,7.86498435 Z M15.3997419,8.14564231 C15.5004895,7.44174615 15.7451622,6.88343193 16.1337601,6.47069964 C16.5223579,6.05946819 17.0721519,5.85235163 17.7759457,5.85085078 C18.425048,5.85085078 18.9676458,6.04445975 19.4094959,6.43317852 C19.845589,6.82489899 20.091701,7.39371912 20.1420748,8.14564231 L15.3997419,8.14564231 Z" id="Shape"></path>
        </g>
    </g>
</svg>