<?xml version="1.0" encoding="UTF-8"?>
<svg width="24px" height="24px" viewBox="0 0 24 24" version="1.1" xmlns="http://www.w3.org/2000/svg" xmlns:xlink="http://www.w3.org/1999/xlink">
    <!-- Generator: Sketch 61 (89581) - https://sketch.com -->
    <title>icn_cakeresume_dafault</title>
    <desc>Created with Sketch.</desc>
    <g id="icn_cakeresume_dafault" stroke="none" stroke-width="1" fill="none" fill-rule="evenodd">
        <rect id="Rectangle-Copy-2" x="0" y="0" width="24" height="24"></rect>
        <g id="Group-3" transform="translate(3.000000, 5.000000)">
            <rect id="Rectangle" fill="#8192A0" x="0" y="0" width="18" height="18" rx="2"></rect>
            <path d="M12.2463488,6.55871799 C11.5293417,5.77083973 10.4826697,5.3769006 9.10633261,5.3769006 C7.04182702,5.3769006 5.46846326,6.99975434 5.46846326,9 C5.46846326,11.0002457 7.3374704,12.5695096 9.10633261,12.5695096 C10.2855741,12.5695096 11.3329274,12.2182809 12.2483925,11.5158234 L14,13.2114286 C12.9330801,14.4038095 11.3018577,15 9.10633261,15 C5.81304504,15 3,12.0888384 3,9.00360834 C3,5.91837827 5.81497512,3 9.10633261,3 C11.3005709,3 12.9317934,3.6316713 14,4.89501391 L12.2463488,6.55871799 Z" id="Path-2" fill="#FFFFFF"></path>
        </g>
    </g>
</svg>