<?xml version="1.0" encoding="UTF-8"?>
<svg width="36px" height="36px" viewBox="0 0 36 36" version="1.1" xmlns="http://www.w3.org/2000/svg" xmlns:xlink="http://www.w3.org/1999/xlink">
    <!-- Generator: Sketch 61 (89581) - https://sketch.com -->
    <title>icn_logo_mobile</title>
    <desc>Created with Sketch.</desc>
    <g id="icn_logo_mobile" stroke="none" stroke-width="1" fill="none" fill-rule="evenodd">
        <g id="Group-5-Copy">
            <circle id="Oval-Copy-3" fill="#00FF97" cx="31.5" cy="31.5" r="4.5"></circle>
            <g id="Group-Copy" fill="#21222E" fill-rule="nonzero">
                <path d="M18.564,25.56 C20.484,25.56 22.218,25.254 23.766,24.642 C25.314,24.03 26.64,23.166 27.744,22.05 C28.848,20.934 29.694,19.59 30.282,18.018 C30.87,16.446 31.164,14.688 31.164,12.744 C31.164,10.992 30.9,9.342 30.372,7.794 C29.844,6.246 29.052,4.896 27.996,3.744 C26.94,2.592 25.626,1.68 24.054,1.008 C22.482,0.336 20.652,-4.26325641e-14 18.564,-4.26325641e-14 L18.564,-4.26325641e-14 L9.276,-4.26325641e-14 L9.276,25.56 L18.564,25.56 Z M18.564,21.204 L14.244,21.204 L14.244,4.356 L18.564,4.356 C19.764,4.356 20.838,4.56 21.786,4.968 C22.734,5.376 23.532,5.952 24.18,6.696 C24.828,7.44 25.32,8.328 25.656,9.36 C25.992,10.392 26.16,11.52 26.16,12.744 C26.16,13.944 25.992,15.06 25.656,16.092 C25.32,17.124 24.834,18.018 24.198,18.774 C23.562,19.53 22.77,20.124 21.822,20.556 C20.874,20.988 19.788,21.204 18.564,21.204 L18.564,21.204 Z" id="D"></path>
                <polygon id="L" points="18 34.62 18 30.264 4.968 30.264 4.968 9.06 -2.13162821e-14 9.06 -2.13162821e-14 34.62"></polygon>
            </g>
        </g>
    </g>
</svg>